<svg width="156" height="145" viewBox="0 0 156 145" fill="none" xmlns="http://www.w3.org/2000/svg">
<g clip-path="url(#clip0_101:478)">
<path d="M54.5183 73.2619H96.6362C103.041 73.2619 108.443 71.4259 112.843 67.754C117.307 64.0822 119.539 58.8613 119.539 52.0913C119.539 47.0998 117.21 42.6247 112.552 38.666C107.894 34.6498 102.588 32.6418 96.6362 32.6418H36.6618V144.175H29.6745V26.4455H96.6362C104.529 26.4455 111.484 29.056 117.501 34.2769C123.518 39.4405 126.526 45.3786 126.526 52.0913C126.526 60.353 123.615 66.9796 117.792 71.971C111.969 76.9625 104.917 79.4582 96.6362 79.4582H54.5183V73.2619ZM54.5183 85.6545H96.6362C106.729 85.6545 115.398 82.5277 122.644 76.274C129.891 69.9629 133.513 61.9021 133.513 52.0913C133.513 43.6574 129.794 36.2563 122.353 29.8879C114.978 23.4621 106.405 20.2491 96.6362 20.2491H22.6871V144.175H15.6999V14.0529H96.6362C104.335 14.0529 111.549 15.8028 118.277 19.3026C125.071 22.8023 130.473 27.5069 134.484 33.4163C138.495 39.2684 140.501 45.4933 140.501 52.0913C140.501 63.3937 136.166 72.8602 127.497 80.4909C118.892 88.0641 108.605 91.8508 96.6362 91.8508H54.5183V85.6545ZM54.5183 98.0471H96.6362C105.694 98.0471 114.104 96.0677 121.868 92.109C129.632 88.1502 135.842 82.6423 140.501 75.5855C145.158 68.4713 147.488 60.6398 147.488 52.0913C147.488 44.3459 145.158 37.0882 140.501 30.3182C135.907 23.4907 129.697 18.0404 121.868 13.9669C114.04 9.89337 105.629 7.85663 96.6362 7.85663H8.71259V144.175H1.72528V1.66034H96.6362C106.794 1.66034 116.336 3.98395 125.265 8.63116C134.193 13.221 141.278 19.4172 146.518 27.2201C151.823 34.9654 154.476 43.2558 154.476 52.0913C154.476 62.3037 151.985 71.2826 147.003 79.0279C142.086 86.7733 135.389 92.8261 126.914 97.1865L144.965 144.175H137.59L120.315 100.112C117.728 101.03 115.754 101.662 114.396 102.006L130.602 144.175H123.227L107.408 103.469C106.826 103.584 104.756 103.784 101.197 104.071L116.239 144.175H108.864L94.0159 104.243H87.7079L101.877 144.175H94.5012L80.2355 104.243H54.5183V98.0471ZM50.6364 144.175H43.649V38.8381H96.6362C100.971 38.8381 104.691 40.1576 107.796 42.7968C110.967 45.3786 112.552 48.4768 112.552 52.0913C112.552 62.0742 107.247 67.0656 96.6362 67.0656H54.5183V60.8694H96.6362C99.4182 60.8694 101.585 60.2383 103.138 58.976C104.756 57.6564 105.564 55.3616 105.564 52.0913C105.564 50.0832 104.691 48.4194 102.944 47.0998C101.262 45.7228 99.1594 45.0344 96.6362 45.0344H50.6364V144.175Z" fill="#33658A"/>
<path d="M54.5183 73.2619H96.6362C103.041 73.2619 108.443 71.4259 112.843 67.754C117.307 64.0822 119.539 58.8613 119.539 52.0913C119.539 47.0998 117.21 42.6247 112.552 38.666C107.894 34.6498 102.588 32.6418 96.6362 32.6418H36.6618L29.6745 26.4455H96.6362C104.529 26.4455 111.484 29.056 117.501 34.2769C123.518 39.4405 126.526 45.3786 126.526 52.0913C126.526 60.353 123.615 66.9796 117.792 71.971C111.969 76.9625 104.917 79.4582 96.6362 79.4582H54.5183V73.2619ZM54.5183 85.6545H96.6362C106.729 85.6545 115.398 82.5277 122.644 76.274C129.891 69.9629 133.513 61.9021 133.513 52.0913C133.513 43.6574 129.794 36.2563 122.353 29.8879C114.978 23.4621 106.405 20.2491 96.6362 20.2491H22.6872L15.6999 14.0529H96.6362C104.335 14.0529 111.549 15.8028 118.277 19.3026C125.071 22.8023 130.473 27.5069 134.484 33.4163C138.495 39.2684 140.501 45.4933 140.501 52.0913C140.501 63.3937 136.166 72.8602 127.497 80.4909C118.892 88.0642 108.605 91.8508 96.6362 91.8508H54.5183V85.6545ZM54.5183 98.0471H96.6362C105.694 98.0471 114.104 96.0677 121.868 92.109C129.632 88.1502 135.842 82.6424 140.501 75.5855C145.158 68.4713 147.488 60.6398 147.488 52.0913C147.488 44.3459 145.158 37.0882 140.501 30.3182C135.907 23.4907 129.697 18.0404 121.868 13.9669C114.04 9.89337 105.629 7.85663 96.6362 7.85663H8.7126L1.72528 1.66034H96.6362C106.794 1.66034 116.336 3.98395 125.265 8.63116C134.193 13.221 141.278 19.4172 146.518 27.2201C151.823 34.9654 154.476 43.2558 154.476 52.0913C154.476 62.3037 151.985 71.2826 147.003 79.0279C142.086 86.7733 135.389 92.8261 126.914 97.1865L120.315 100.112C117.728 101.03 115.754 101.662 114.396 102.006L107.408 103.469C106.826 103.584 104.756 103.784 101.197 104.071L94.0159 104.243H87.708H80.2355H54.5183V98.0471ZM50.6364 45.0344L43.6491 38.8381H96.6362C100.971 38.8381 104.691 40.1576 107.796 42.7968C110.967 45.3786 112.552 48.4768 112.552 52.0913C112.552 62.0742 107.247 67.0656 96.6362 67.0656H54.5183V60.8694H96.6362C99.4182 60.8694 101.585 60.2383 103.138 58.976C104.756 57.6565 105.564 55.3616 105.564 52.0913C105.564 50.0832 104.691 48.4194 102.944 47.0998C101.262 45.7228 99.1594 45.0344 96.6362 45.0344H50.6364Z" fill="#DF4B43"/>
</g>
<defs>
<clipPath id="clip0_101:478">
<rect width="155.025" height="143.35" fill="white" transform="translate(0.650024 0.825012)"/>
</clipPath>
</defs>
</svg>
